<svg xmlns="http://www.w3.org/2000/svg" xmlns:xlink="http://www.w3.org/1999/xlink" width="61" height="61" viewBox="0 0 61 61">
  <defs>
    <clipPath id="clip-path">
      <rect id="Rectángulo_51" data-name="Rectángulo 51" width="40.775" height="38.655" fill="none"/>
    </clipPath>
  </defs>
  <g id="Grupo_75" data-name="Grupo 75" transform="translate(0.076 0.336)">
    <rect id="Rectángulo_9" data-name="Rectángulo 9" width="61" height="61" rx="9" transform="translate(-0.076 -0.336)" fill="#f9f9f9"/>
    <g id="Grupo_147" data-name="Grupo 147" transform="translate(9.353 8.983)">
      <g id="Grupo_143" data-name="Grupo 143" clip-path="url(#clip-path)">
        <path id="Trazado_150" data-name="Trazado 150" d="M293.718,199.338c-.171-.012-.342-.033-.513-.034q-5.5,0-10.991,0h-.534V178.939h12.038Z" transform="translate(-252.943 -160.684)" fill="#20bed3"/>
        <rect id="Rectángulo_49" data-name="Rectángulo 49" width="12.029" height="26.379" transform="translate(14.355 12.214)" fill="#20bed3"/>
        <rect id="Rectángulo_50" data-name="Rectángulo 50" width="12.017" height="16.157" transform="translate(0 22.438)" fill="#20bed3"/>
        <path id="Trazado_151" data-name="Trazado 151" d="M149.8,10.475c.175-1.041.307-2.038.523-3.016a1.208,1.208,0,0,0-.4-1.307c-.734-.685-1.388-1.457-2.064-2.181l1.92-.291a5.526,5.526,0,0,1,.983-.133c.6.02.875-.3,1.1-.81.4-.907.867-1.787,1.336-2.738.079.13.141.217.188.312.448.9.913,1.8,1.328,2.714a.754.754,0,0,0,.679.485c1,.13,2,.279,2.993.423.091.013.18.039.27.059l.112.124a2.278,2.278,0,0,0-.387.246c-.709.679-1.4,1.378-2.119,2.047a.669.669,0,0,0-.21.7c.2,1.093.381,2.19.58,3.346-.142-.058-.235-.087-.32-.132-.916-.479-1.835-.953-2.743-1.448a.633.633,0,0,0-.691-.008c-.882.486-1.779.946-2.671,1.414-.115.06-.235.113-.4.195" transform="translate(-132.772 0.001)" fill="#20bed3"/>
        <path id="Trazado_152" data-name="Trazado 152" d="M297.329,69.144c-.4-.205-.746-.385-1.094-.567-.658-.344-1.322-.679-1.97-1.041a.594.594,0,0,0-.657,0c-.884.484-1.782.943-2.675,1.41-.113.059-.23.114-.41.2.133-.8.258-1.528.376-2.257a3.72,3.72,0,0,0,.187-1.514c-.133-.427-.668-.724-1.015-1.089-.518-.545-1.026-1.1-1.535-1.646,1.084-.158,2.219-.331,3.358-.482a.546.546,0,0,0,.477-.343c.5-1.038,1.016-2.069,1.558-3.17.243.486.46.914.673,1.344.3.606.582,1.222.907,1.814a.743.743,0,0,0,.462.336c1.125.187,2.256.339,3.465.514-.114.128-.188.222-.273.3-.74.724-1.477,1.452-2.228,2.166a.539.539,0,0,0-.179.555c.189,1.031.358,2.065.532,3.1.017.1.023.2.04.369" transform="translate(-259.1 -52.66)" fill="#20bed3"/>
        <path id="Trazado_153" data-name="Trazado 153" d="M15.035,102.543c-.758.815-1.528,1.656-2.318,2.479a.59.59,0,0,0-.186.591c.208,1.118.388,2.242.589,3.427-.148-.064-.251-.1-.347-.152-.916-.479-1.835-.952-2.742-1.447a.607.607,0,0,0-.658.005c-.884.482-1.779.944-2.671,1.413-.113.059-.23.109-.409.193.171-1.015.287-1.976.508-2.911a1.338,1.338,0,0,0-.459-1.481C5.623,104,5,103.243,4.353,102.549c.995-.146,2.089-.317,3.187-.459a.729.729,0,0,0,.656-.457c.47-1.007.974-2,1.491-3.046.076.121.135.2.177.284.448.9.908,1.8,1.332,2.711a.783.783,0,0,0,.7.512c1.089.131,2.173.308,3.135.449" transform="translate(-3.909 -88.529)" fill="#20bed3"/>
      </g>
    </g>
  </g>
</svg>
