<svg id="Grupo_156" data-name="Grupo 156" xmlns="http://www.w3.org/2000/svg" xmlns:xlink="http://www.w3.org/1999/xlink" width="45.309" height="45.309" viewBox="0 0 45.309 45.309">
  <defs>
    <clipPath id="clip-path">
      <rect id="Rect치ngulo_80" data-name="Rect치ngulo 80" width="27.814" height="27.824" fill="none"/>
    </clipPath>
  </defs>
  <rect id="Rect치ngulo_57" data-name="Rect치ngulo 57" width="45.309" height="45.309" rx="9" fill="#f9f9f9"/>
  <g id="Grupo_200" data-name="Grupo 200" transform="translate(8.608 9.271)">
    <g id="Grupo_199" data-name="Grupo 199" clip-path="url(#clip-path)">
      <path id="Trazado_200" data-name="Trazado 200" d="M25.961,55.64c.329,0,.618,0,.907,0a.926.926,0,1,1,0,1.852c-.415.006-.83,0-1.246,0q-12.239,0-24.479,0a1.749,1.749,0,0,1-.485-.049.91.91,0,0,1-.648-.978.923.923,0,0,1,.872-.821c.315-.014.632,0,.977,0v-.368q0-5.751,0-11.5c0-.773.339-1.114,1.11-1.114H8.208A.945.945,0,0,1,9.272,43.73q0,5.766,0,11.531v.36H10.2v-.35q0-8.055,0-16.109c0-.813.328-1.142,1.14-1.142h5.214a.946.946,0,0,1,1.063,1.074q0,8.084,0,16.167v.36h.927v-21.1c0-.814.328-1.142,1.139-1.142H24.9a.946.946,0,0,1,1.063,1.073q0,10.387,0,20.774Z" transform="translate(0 -29.671)" fill="#20bed3"/>
      <path id="Trazado_201" data-name="Trazado 201" d="M24.48,3.714c1.255,0,2.51-.006,3.765.006a.7.7,0,0,0,.551-.235C29.827,2.439,30.871,1.408,31.9.365A1.154,1.154,0,0,1,32.78,0c1.8.007,3.592,0,5.387,0a.93.93,0,0,1,.945.7.879.879,0,0,1-.408,1,1.34,1.34,0,0,1-.6.148q-2.346.018-4.692,0a.821.821,0,0,0-.65.277c-1.009,1.026-2.034,2.035-3.045,3.059a1.216,1.216,0,0,1-.927.385c-2.452-.008-4.9,0-7.357-.01a.478.478,0,0,0-.473.275Q19.805,7.78,18.635,9.71a.92.92,0,0,1-.973.481.844.844,0,0,1-.737-.718,1.143,1.143,0,0,1,.118-.687c.9-1.54,1.826-3.067,2.745-4.6a.962.962,0,0,1,.9-.478c1.265,0,2.53,0,3.794,0" transform="translate(-15.034 -0.001)" fill="#20bed3"/>
    </g>
  </g>
</svg>
