<svg xmlns="http://www.w3.org/2000/svg" width="58.587" height="58.587" viewBox="0 0 58.587 58.587">
  <path id="Icon_awesome-user-circle" data-name="Icon awesome-user-circle" d="M29.294.562A29.294,29.294,0,1,0,58.587,29.856,29.289,29.289,0,0,0,29.294.562Zm0,11.339A10.395,10.395,0,1,1,18.9,22.3,10.395,10.395,0,0,1,29.294,11.9Zm0,40.633a22.635,22.635,0,0,1-17.3-8.056,13.17,13.17,0,0,1,11.635-7.064,2.89,2.89,0,0,1,.839.13,15.639,15.639,0,0,0,4.831.815,15.58,15.58,0,0,0,4.831-.815,2.89,2.89,0,0,1,.839-.13A13.17,13.17,0,0,1,46.6,44.479,22.635,22.635,0,0,1,29.294,52.535Z" transform="translate(0 -0.563)" fill="#20bed3"/>
</svg>
