<svg xmlns="http://www.w3.org/2000/svg" width="15.114" height="15.111" viewBox="0 0 15.114 15.111">
  <path id="Icon_awesome-instagram" data-name="Icon awesome-instagram" d="M7.554,5.919a3.874,3.874,0,1,0,3.874,3.874A3.868,3.868,0,0,0,7.554,5.919Zm0,6.393a2.519,2.519,0,1,1,2.519-2.519,2.523,2.523,0,0,1-2.519,2.519ZM12.49,5.76a.9.9,0,1,1-.9-.9A.9.9,0,0,1,12.49,5.76Zm2.566.917a4.472,4.472,0,0,0-1.221-3.166,4.5,4.5,0,0,0-3.166-1.221c-1.248-.071-4.987-.071-6.235,0A4.5,4.5,0,0,0,1.268,3.508,4.487,4.487,0,0,0,.048,6.674c-.071,1.248-.071,4.987,0,6.235a4.472,4.472,0,0,0,1.221,3.166A4.507,4.507,0,0,0,4.435,17.3c1.248.071,4.987.071,6.235,0a4.472,4.472,0,0,0,3.166-1.221,4.5,4.5,0,0,0,1.221-3.166c.071-1.248.071-4.984,0-6.231Zm-1.612,7.57a2.55,2.55,0,0,1-1.436,1.436,16.654,16.654,0,0,1-4.454.3,16.784,16.784,0,0,1-4.454-.3,2.55,2.55,0,0,1-1.436-1.436,16.653,16.653,0,0,1-.3-4.454,16.783,16.783,0,0,1,.3-4.454A2.55,2.55,0,0,1,3.1,3.9a16.654,16.654,0,0,1,4.454-.3,16.784,16.784,0,0,1,4.454.3,2.55,2.55,0,0,1,1.436,1.436,16.653,16.653,0,0,1,.3,4.454A16.644,16.644,0,0,1,13.444,14.247Z" transform="translate(0.005 -2.238)" fill="#fcfcfc"/>
</svg>
