<svg xmlns="http://www.w3.org/2000/svg" width="15.106" height="15.105" viewBox="0 0 15.106 15.105">
  <path id="Icon_awesome-linkedin-in" data-name="Icon awesome-linkedin-in" d="M3.381,15.106H.25V5.021H3.381ZM1.814,3.645A1.822,1.822,0,1,1,3.627,1.814,1.829,1.829,0,0,1,1.814,3.645ZM15.1,15.106H11.978V10.2c0-1.17-.024-2.67-1.628-2.67-1.628,0-1.878,1.271-1.878,2.586v4.994H5.343V5.021h3V6.4h.044a3.291,3.291,0,0,1,2.963-1.629c3.17,0,3.752,2.087,3.752,4.8v5.54Z" transform="translate(0 0)" fill="#fcfcfc"/>
</svg>
