<svg id="Grupo_139" data-name="Grupo 139" xmlns="http://www.w3.org/2000/svg" xmlns:xlink="http://www.w3.org/1999/xlink" width="137.499" height="68.912" viewBox="0 0 137.499 68.912">
  <defs>
    <clipPath id="clip-path">
      <path id="Trazado_118" data-name="Trazado 118" d="M92.933,6.811l21.813,43.92a.473.473,0,0,0,.424.263h19.192l-2.112-4.545-5.7-4.284-3.986-8.5-1.193-10.616-7.481-16.1a.238.238,0,0,0-.216-.138Z" transform="translate(-92.933 -6.811)" fill="none"/>
    </clipPath>
    <linearGradient id="linear-gradient" x1="-0.262" y1="1.278" x2="-0.258" y2="1.278" gradientUnits="objectBoundingBox">
      <stop offset="0" stop-color="#20bed3"/>
      <stop offset="1" stop-color="#00183a"/>
    </linearGradient>
    <clipPath id="clip-path-2">
      <rect id="Rectángulo_35" data-name="Rectángulo 35" width="137.499" height="68.912" fill="none"/>
    </clipPath>
    <clipPath id="clip-path-3">
      <path id="Trazado_120" data-name="Trazado 120" d="M322.764,6.811a.461.461,0,0,0-.418.267l-8.5,18.294,1.523,8.5-4.507,7.99L303.9,46.776l-1.96,4.218h19.053a.7.7,0,0,0,.624-.387l21.752-43.8Z" transform="translate(-301.937 -6.811)" fill="none"/>
    </clipPath>
    <linearGradient id="linear-gradient-2" x1="-1.123" y1="1.294" x2="-1.119" y2="1.294" xlink:href="#linear-gradient"/>
  </defs>
  <g id="Grupo_110" data-name="Grupo 110" transform="translate(22.646 1.66)">
    <g id="Grupo_109" data-name="Grupo 109" clip-path="url(#clip-path)">
      <rect id="Rectángulo_34" data-name="Rectángulo 34" width="56.865" height="58.088" transform="translate(-17.738 8.923) rotate(-26.706)" fill="url(#linear-gradient)"/>
    </g>
  </g>
  <g id="Grupo_112" data-name="Grupo 112">
    <g id="Grupo_111" data-name="Grupo 111" clip-path="url(#clip-path-2)">
      <path id="Trazado_119" data-name="Trazado 119" d="M50.865,6.812h-20.9L10,49.774a.859.859,0,0,0,.779,1.221h16.4A2.809,2.809,0,0,0,29.7,49.436Z" transform="translate(-7.505 -5.152)" fill="#20bed3"/>
    </g>
  </g>
  <g id="Grupo_114" data-name="Grupo 114" transform="translate(73.575 1.66)">
    <g id="Grupo_113" data-name="Grupo 113" clip-path="url(#clip-path-3)">
      <rect id="Rectángulo_36" data-name="Rectángulo 36" width="58.088" height="56.866" transform="translate(-17.738 35.26) rotate(-63.294)" fill="url(#linear-gradient-2)"/>
    </g>
  </g>
  <g id="Grupo_116" data-name="Grupo 116">
    <g id="Grupo_115" data-name="Grupo 115" clip-path="url(#clip-path-2)">
      <path id="Trazado_121" data-name="Trazado 121" d="M386.945,6.812h20.348a.86.86,0,0,1,.779.5l19.734,42.465a.859.859,0,0,1-.779,1.221h-16.4a2.809,2.809,0,0,1-2.515-1.559Z" transform="translate(-292.656 -5.152)" fill="#20bed3"/>
      <path id="Trazado_122" data-name="Trazado 122" d="M209.294,0c13.3,0,23.786,10.008,23.786,23.717A23.33,23.33,0,0,1,209.294,47.5c-13.229,0-23.306-10.968-23.306-23.786C185.988,10.967,196.065,0,209.294,0m.48,40.649c9.117,0,15.081-7.746,15.081-16.932,0-8.637-5.964-16.862-15.081-16.862-9.6,0-15.56,7.745-15.56,16.862,0,9.186,5.963,16.932,15.56,16.932" transform="translate(-140.667)" fill="#c5e1ef"/>
      <path id="Trazado_123" data-name="Trazado 123" d="M6.477,253.555c.05.138-.025.2-.15.2H5.938a.23.23,0,0,1-.239-.2l-.74-2.383H1.536l-.752,2.383c-.038.138-.1.2-.226.2h-.4c-.125,0-.188-.063-.138-.2l2.8-8.741a.251.251,0,0,1,.238-.2h.4a.251.251,0,0,1,.238.2Zm-1.743-3.11-1.467-4.7-1.492,4.7Z" transform="translate(-0.001 -185.007)" fill="#c5e1ef"/>
      <path id="Trazado_124" data-name="Trazado 124" d="M41.36,248.753a.166.166,0,0,1,.188.188v1.693a2.85,2.85,0,0,1-2.621,2.972H38.35a2.845,2.845,0,0,1-2.659-2.972v-3.449A2.866,2.866,0,0,1,38.35,244.2h.577a2.864,2.864,0,0,1,2.609,2.9.166.166,0,0,1-.188.188h-.376a.175.175,0,0,1-.2-.188,2.05,2.05,0,0,0-1.844-2.169H38.35a2.092,2.092,0,0,0-1.906,2.257v3.449a2.071,2.071,0,0,0,1.906,2.245h.577a2.068,2.068,0,0,0,1.856-2.245V249.48H38.952a.166.166,0,0,1-.188-.188v-.351a.166.166,0,0,1,.188-.188Z" transform="translate(-26.994 -184.694)" fill="#c5e1ef"/>
      <path id="Trazado_125" data-name="Trazado 125" d="M72.063,248.918h3.273a.166.166,0,0,1,.188.188v.351a.166.166,0,0,1-.188.188H72.063v3.5h4.089a.166.166,0,0,1,.188.188v.351a.166.166,0,0,1-.188.188H71.5a.166.166,0,0,1-.188-.188v-8.729a.166.166,0,0,1,.188-.188h4.653a.166.166,0,0,1,.188.188v.351a.166.166,0,0,1-.188.188H72.063Z" transform="translate(-53.934 -185.123)" fill="#c5e1ef"/>
      <path id="Trazado_126" data-name="Trazado 126" d="M109.66,244.767a.166.166,0,0,1,.188.188v8.729a.166.166,0,0,1-.188.188h-.828a.23.23,0,0,1-.226-.138l-4.063-8.215v8.164a.166.166,0,0,1-.188.188h-.376a.166.166,0,0,1-.188-.188v-8.729a.166.166,0,0,1,.188-.188h.828a.23.23,0,0,1,.226.138l4.063,8.215v-8.164a.166.166,0,0,1,.188-.188Z" transform="translate(-78.5 -185.123)" fill="#c5e1ef"/>
      <path id="Trazado_127" data-name="Trazado 127" d="M145.374,250.5a.166.166,0,0,1,.188.188,2.87,2.87,0,0,1-2.609,2.922h-.577a2.89,2.89,0,0,1-2.659-3.01v-3.411a2.866,2.866,0,0,1,2.659-2.985h.577a2.864,2.864,0,0,1,2.609,2.9.166.166,0,0,1-.188.188H145a.175.175,0,0,1-.2-.188,2.058,2.058,0,0,0-1.844-2.169h-.577a2.092,2.092,0,0,0-1.906,2.257V250.6a2.117,2.117,0,0,0,1.906,2.283h.577a2.066,2.066,0,0,0,1.844-2.195.175.175,0,0,1,.2-.188Z" transform="translate(-105.672 -184.694)" fill="#c5e1ef"/>
      <path id="Trazado_128" data-name="Trazado 128" d="M179.9,244.767c.125,0,.2.063.125.188l-2.746,4.916v3.813a.166.166,0,0,1-.188.188h-.376a.166.166,0,0,1-.188-.188v-3.812l-2.721-4.916c-.075-.125,0-.188.125-.188h.489c.125,0,.175.063.251.188l2.232,4.1,2.257-4.1c.075-.125.126-.188.251-.188Z" transform="translate(-131.43 -185.123)" fill="#c5e1ef"/>
      <path id="Trazado_129" data-name="Trazado 129" d="M234.707,244.2a2.841,2.841,0,0,1,2.634,3v3.336a2.841,2.841,0,0,1-2.634,3h-.577a2.841,2.841,0,0,1-2.634-3V247.2a2.841,2.841,0,0,1,2.634-3Zm-.025,8.616a2.091,2.091,0,0,0,1.906-2.283V247.2a2.071,2.071,0,0,0-1.906-2.27h-.527a2.071,2.071,0,0,0-1.906,2.27v3.336a2.076,2.076,0,0,0,1.906,2.283Z" transform="translate(-175.086 -184.695)" fill="#c5e1ef"/>
      <path id="Trazado_130" data-name="Trazado 130" d="M268.074,249.044h3.273a.166.166,0,0,1,.188.188v.351a.166.166,0,0,1-.188.188h-3.273v3.913a.166.166,0,0,1-.188.188h-.376a.166.166,0,0,1-.188-.188v-8.729a.166.166,0,0,1,.188-.188h4.653a.166.166,0,0,1,.188.188v.351a.166.166,0,0,1-.188.188h-4.089Z" transform="translate(-202.181 -185.123)" fill="#c5e1ef"/>
      <path id="Trazado_131" data-name="Trazado 131" d="M324.839,253.555c.05.138-.025.2-.15.2H324.3a.23.23,0,0,1-.238-.2l-.74-2.383H319.9l-.752,2.383c-.038.138-.1.2-.226.2h-.4c-.126,0-.188-.063-.138-.2l2.8-8.741a.251.251,0,0,1,.239-.2h.4a.251.251,0,0,1,.238.2Zm-1.743-3.11-1.467-4.7-1.492,4.7Z" transform="translate(-240.785 -185.007)" fill="#c5e1ef"/>
      <path id="Trazado_132" data-name="Trazado 132" d="M359.722,248.753a.166.166,0,0,1,.188.188v1.693a2.85,2.85,0,0,1-2.621,2.972h-.577a2.845,2.845,0,0,1-2.659-2.972v-3.449a2.866,2.866,0,0,1,2.659-2.985h.577a2.863,2.863,0,0,1,2.608,2.9.166.166,0,0,1-.188.188h-.376a.175.175,0,0,1-.2-.188,2.05,2.05,0,0,0-1.844-2.169h-.577a2.092,2.092,0,0,0-1.906,2.257v3.449a2.071,2.071,0,0,0,1.906,2.245h.577a2.068,2.068,0,0,0,1.856-2.245V249.48h-1.831a.166.166,0,0,1-.188-.188v-.351a.166.166,0,0,1,.188-.188Z" transform="translate(-267.779 -184.694)" fill="#c5e1ef"/>
      <path id="Trazado_133" data-name="Trazado 133" d="M390.426,248.918H393.7a.166.166,0,0,1,.188.188v.351a.166.166,0,0,1-.188.188h-3.273v3.5h4.089a.166.166,0,0,1,.188.188v.351a.167.167,0,0,1-.188.188h-4.653a.166.166,0,0,1-.188-.188v-8.729a.166.166,0,0,1,.188-.188h4.653a.166.166,0,0,1,.188.188v.351a.167.167,0,0,1-.188.188h-4.089Z" transform="translate(-294.72 -185.123)" fill="#c5e1ef"/>
      <path id="Trazado_134" data-name="Trazado 134" d="M428.023,244.767a.166.166,0,0,1,.188.188v8.729a.166.166,0,0,1-.188.188H427.2a.229.229,0,0,1-.226-.138l-4.063-8.215v8.164a.166.166,0,0,1-.188.188h-.376a.166.166,0,0,1-.188-.188v-8.729a.166.166,0,0,1,.188-.188h.828a.23.23,0,0,1,.226.138l4.063,8.215v-8.164a.166.166,0,0,1,.188-.188Z" transform="translate(-319.285 -185.123)" fill="#c5e1ef"/>
      <path id="Trazado_135" data-name="Trazado 135" d="M463.737,250.5a.166.166,0,0,1,.188.188,2.87,2.87,0,0,1-2.609,2.922h-.577a2.89,2.89,0,0,1-2.659-3.01v-3.411a2.866,2.866,0,0,1,2.659-2.985h.577a2.863,2.863,0,0,1,2.609,2.9.166.166,0,0,1-.188.188h-.376a.175.175,0,0,1-.2-.188,2.058,2.058,0,0,0-1.844-2.169h-.577a2.092,2.092,0,0,0-1.906,2.257V250.6a2.117,2.117,0,0,0,1.906,2.283h.577a2.066,2.066,0,0,0,1.844-2.195.175.175,0,0,1,.2-.188Z" transform="translate(-346.458 -184.694)" fill="#c5e1ef"/>
      <rect id="Rectángulo_37" data-name="Rectángulo 37" width="0.752" height="9.105" rx="0.376" transform="translate(120.228 59.644)" fill="#c5e1ef"/>
      <path id="Trazado_136" data-name="Trazado 136" d="M509.587,248.918h3.273a.166.166,0,0,1,.188.188v.351a.166.166,0,0,1-.188.188h-3.273v3.5h4.089a.166.166,0,0,1,.188.188v.351a.166.166,0,0,1-.188.188h-4.653a.167.167,0,0,1-.188-.188v-8.729a.166.166,0,0,1,.188-.188h4.653a.166.166,0,0,1,.188.188v.351a.166.166,0,0,1-.188.188h-4.089Z" transform="translate(-384.843 -185.123)" fill="#c5e1ef"/>
      <path id="Trazado_137" data-name="Trazado 137" d="M543.458,244.2a2.6,2.6,0,0,1,2.571,2.634v.213a.166.166,0,0,1-.188.188h-.389a.166.166,0,0,1-.188-.188v-.213a1.848,1.848,0,0,0-1.894-1.906h-.514a1.633,1.633,0,0,0-1.768,1.743c0,1.141.752,1.53,1.806,1.731l.665.125c1.367.263,2.571.89,2.571,2.508a2.545,2.545,0,0,1-2.633,2.558h-.577a2.568,2.568,0,0,1-2.634-2.521v-.338a.166.166,0,0,1,.188-.188h.389a.166.166,0,0,1,.188.188l.013.338a1.833,1.833,0,0,0,1.944,1.793h.439a1.811,1.811,0,0,0,1.931-1.831c0-1.242-.828-1.593-1.818-1.781l-.665-.126c-1.48-.276-2.558-.966-2.558-2.458a2.384,2.384,0,0,1,2.471-2.471Z" transform="translate(-408.63 -184.695)" fill="#c5e1ef"/>
    </g>
  </g>
</svg>
