<svg id="Grupo_75" data-name="Grupo 75" xmlns="http://www.w3.org/2000/svg" xmlns:xlink="http://www.w3.org/1999/xlink" width="61" height="61" viewBox="0 0 61 61">
  <defs>
    <clipPath id="clip-path">
      <rect id="Rect치ngulo_52" data-name="Rect치ngulo 52" width="36.067" height="40.219" fill="none"/>
    </clipPath>
  </defs>
  <rect id="Rect치ngulo_9" data-name="Rect치ngulo 9" width="61" height="61" rx="9" fill="#f9f9f9"/>
  <g id="Grupo_145" data-name="Grupo 145" transform="translate(13.347 9.723)">
    <g id="Grupo_145-2" data-name="Grupo 145" clip-path="url(#clip-path)">
      <path id="Trazado_154" data-name="Trazado 154" d="M24.246,52.571l3.418,2.8c-.179.238-.313.433-.464.614Q18.774,66.152,10.345,76.319c-.742.895-1,.92-1.892.186-.51-.422-1.02-.844-1.525-1.272-.719-.609-.745-.913-.132-1.652q6.1-7.365,12.211-14.728Q21.373,56,23.742,53.147c.139-.168.287-.328.5-.576" transform="translate(-5.621 -46.454)" fill="#20bed3"/>
      <path id="Trazado_155" data-name="Trazado 155" d="M101.108,116.267l3.415,2.8c-.176.233-.3.412-.439.579q-8.426,10.163-16.855,20.324c-.8.964-1.011.981-1.979.173q-.762-.636-1.521-1.275c-.7-.592-.721-.81-.129-1.525q6.058-7.312,12.121-14.621,2.429-2.929,4.857-5.858c.152-.183.314-.357.529-.6" transform="translate(-73.5 -102.739)" fill="#20bed3"/>
      <path id="Trazado_156" data-name="Trazado 156" d="M63.095,84.961l3.42,2.8c-.18.241-.313.435-.463.615q-8.419,10.162-16.841,20.32c-.707.852-.974.869-1.841.143-.507-.424-1.019-.843-1.523-1.271-.713-.606-.741-.928-.138-1.656q5.781-6.979,11.565-13.955,2.638-3.183,5.276-6.366c.154-.185.316-.363.545-.626" transform="translate(-40.013 -75.075)" fill="#20bed3"/>
      <path id="Trazado_157" data-name="Trazado 157" d="M168.542,4.922c.512-.617.972-1.173,1.434-1.726.763-.913,1.523-1.829,2.3-2.734.494-.578.751-.606,1.329-.129Q179.08,4.86,184.551,9.4c.4.334.638.714.244,1.183-1.232,1.469-2.481,2.923-3.726,4.381a1.074,1.074,0,0,1-.237.135L168.542,4.922" transform="translate(-148.931 0)" fill="#20bed3"/>
      <path id="Trazado_158" data-name="Trazado 158" d="M.071,269.239l9.389,7.806-.057.167q-1.724.2-3.447.4c-1.445.166-2.891.318-4.334.5-.592.074-.951-.108-1-.733Q.306,273.494,0,269.605a2.251,2.251,0,0,1,.07-.366" transform="translate(0 -237.911)" fill="#20bed3"/>
    </g>
  </g>
</svg>
