<svg id="Grupo_96" data-name="Grupo 96" xmlns="http://www.w3.org/2000/svg" width="15.874" height="15.874" viewBox="0 0 15.874 15.874">
  <path id="Icon_awesome-phone-alt" data-name="Icon awesome-phone-alt" d="M15.421,11.217,11.948,9.729a.744.744,0,0,0-.868.214L9.543,11.822A11.492,11.492,0,0,1,4.049,6.328L5.928,4.791a.742.742,0,0,0,.214-.868L4.654.45A.749.749,0,0,0,3.8.019L.577.763A.744.744,0,0,0,0,1.488,14.384,14.384,0,0,0,14.386,15.874a.744.744,0,0,0,.725-.577l.744-3.224a.753.753,0,0,0-.434-.856Z" transform="translate(0 0)" fill="#fff"/>
</svg>
