<svg id="Grupo_156" data-name="Grupo 156" xmlns="http://www.w3.org/2000/svg" xmlns:xlink="http://www.w3.org/1999/xlink" width="45.309" height="45.309" viewBox="0 0 45.309 45.309">
  <defs>
    <clipPath id="clip-path">
      <rect id="Rectángulo_11" data-name="Rectángulo 11" width="32.186" height="27.081" fill="#20bed3"/>
    </clipPath>
  </defs>
  <rect id="Rectángulo_57" data-name="Rectángulo 57" width="45.309" height="45.309" rx="9" fill="#f9f9f9"/>
  <g id="Grupo_78" data-name="Grupo 78" transform="translate(6.439 9.387)">
    <g id="Grupo_78-2" data-name="Grupo 78" clip-path="url(#clip-path)">
      <path id="Trazado_85" data-name="Trazado 85" d="M30.867,14.02a1.322,1.322,0,0,0-1.263.935H26.415L25.083,13.34a10.338,10.338,0,0,0,.416-2.887,10.45,10.45,0,0,0-.127-1.621h2.866a1.32,1.32,0,1,0,0-.77h-3.02A10.384,10.384,0,0,0,7.854,3.018L6.135.934H2.583a1.32,1.32,0,1,0,0,.772H5.771L7.319,3.581a10.349,10.349,0,0,0-2.606,6.872,10.579,10.579,0,0,0,.1,1.427H2.583a1.32,1.32,0,1,0,0,.771H4.949a10.387,10.387,0,0,0,16.756,5.828l3.382,3.768-.65.584,3.822,4.249,1.147-1.032.5-.45h0l.646-.58-3.821-4.249-.642.577-3.4-3.789a10.457,10.457,0,0,0,2.1-3.356l1.257,1.524H29.6a1.32,1.32,0,1,0,1.263-1.706M21.3,17.042A9.042,9.042,0,0,1,6.1,11.259L6.08,9.908a9.042,9.042,0,0,1,18.01-.481l.051,1.349a8.945,8.945,0,0,1-2.84,6.266" fill="#20bed3"/>
      <path id="Trazado_86" data-name="Trazado 86" d="M78.431,22.027H74.317l-1.825,3.5L68.14,15.5l-1.628,7H60.421a9.042,9.042,0,0,1,18.01-.481" transform="translate(-54.341 -12.599)" fill="#20bed3"/>
      <path id="Trazado_87" data-name="Trazado 87" d="M78.669,75.021a9.039,9.039,0,0,1-9.036,8.722A9.053,9.053,0,0,1,60.628,75.5h7.14l.948-4.071L72.567,80.3l2.754-5.28Z" transform="translate(-54.528 -64.245)" fill="#20bed3"/>
      <line id="Línea_1" data-name="Línea 1" x1="0.051" y1="1.349" transform="translate(24.09 9.427)" fill="#2f5360"/>
    </g>
  </g>
</svg>
