<svg id="Grupo_156" data-name="Grupo 156" xmlns="http://www.w3.org/2000/svg" xmlns:xlink="http://www.w3.org/1999/xlink" width="45.309" height="45.309" viewBox="0 0 45.309 45.309">
  <defs>
    <clipPath id="clip-path">
      <rect id="Rect치ngulo_79" data-name="Rect치ngulo 79" width="26.79" height="26.685" fill="#20bed3"/>
    </clipPath>
  </defs>
  <rect id="Rect치ngulo_57" data-name="Rect치ngulo 57" width="45.309" height="45.309" rx="9" fill="#f9f9f9"/>
  <g id="Grupo_198" data-name="Grupo 198" transform="translate(9.26 9.312)">
    <g id="Grupo_197" data-name="Grupo 197" clip-path="url(#clip-path)">
      <path id="Trazado_198" data-name="Trazado 198" d="M26.789,66.2V83a.637.637,0,0,0-.04.1,2.346,2.346,0,0,1-2.455,1.945H2.479A2.357,2.357,0,0,1,0,82.559Q0,74.529,0,66.5V66.2Zm-15.7,14.91a.852.852,0,0,0,.73-.6q1.885-4.418,3.78-8.832c.288-.672.583-1.341.864-2.016a.78.78,0,0,0-.282-.97.754.754,0,0,0-.961.083,1.38,1.38,0,0,0-.257.417q-1.8,4.185-3.593,8.373c-.346.808-.7,1.614-1.035,2.425a.788.788,0,0,0,.756,1.124m-5.07-6.275c.113-.092.193-.158.273-.222Q7.7,73.491,9.111,72.364a.793.793,0,0,0,.191-1.15.785.785,0,0,0-1.161-.085Q6.22,72.661,4.306,74.2a.772.772,0,0,0,0,1.274q1.923,1.549,3.856,3.086a.778.778,0,0,0,1.14-.1.79.79,0,0,0-.17-1.133c-.269-.222-.544-.436-.816-.654L6.021,74.839m14.745,0c-.11.091-.184.152-.258.212q-1.418,1.135-2.836,2.271a.787.787,0,1,0,.982,1.222q1.9-1.515,3.8-3.036a.79.79,0,0,0,.006-1.329q-1.9-1.53-3.817-3.052a.786.786,0,1,0-.974,1.228c.426.346.857.686,1.285,1.029l1.815,1.455" transform="translate(0 -58.356)" fill="#20bed3"/>
      <path id="Trazado_199" data-name="Trazado 199" d="M26.846,2.041V6.279H.064c0-1.4,0-2.771,0-4.139a1.549,1.549,0,0,1,.071-.384A2.326,2.326,0,0,1,2.379,0Q13.457,0,24.535,0h.026a2.3,2.3,0,0,1,2.028,1.3,5.4,5.4,0,0,1,.257.735m-6.328,1.1c-.766,0-1.532,0-2.3,0a.786.786,0,1,0,.007,1.568q2.285,0,4.571,0a.787.787,0,1,0-.007-1.568c-.758,0-1.515,0-2.272,0M4.03,4.708a.784.784,0,1,0-.78-.781.793.793,0,0,0,.78.781M7.163,3.14a.784.784,0,1,0,.794.768.793.793,0,0,0-.794-.768m3.933.783a.784.784,0,1,0-.776.785.792.792,0,0,0,.776-.785" transform="translate(-0.056 0)" fill="#20bed3"/>
    </g>
  </g>
</svg>
